<svg width="1824" height="1039" viewBox="0 0 1824 1039" xmlns="http://www.w3.org/2000/svg" xmlns:xlink="http://www.w3.org/1999/xlink">
    <defs>
        <path d="M111.532 18.902C436.252 6.3 685.742 0 860 0c162.701 0 415.44 5.493 758.22 16.478 110.4 3.538 197.029 95.903 193.491 206.303a200.007 200.007 0 0 1-.24 5.286c-12.526 213.911-18.79 357.176-18.79 429.793 0 68.328 5.545 148.739 16.636 241.232 6.575 54.836-32.548 104.62-87.383 111.194a100 100 0 0 1-8.718.66c-474.647 15.137-815.76 22.704-1023.339 22.704-156.63 0-316.49-4.308-479.58-12.926C99.992 1014.895 15.3 920.752 21.128 810.449a200 200 0 0 1 .681-9.02c15.707-159.722 23.56-274.746 23.56-345.073 0-78.011-9.663-185.89-28.99-323.634C8.706 78.029 46.822 27.47 101.514 19.797a100 100 0 0 1 10.018-.895z" id="k5c5gmwija"/>
        <path d="m0 8.014 14.717 60.335s7.054 2.14 14.385 0c0 0 2.717-11.18 2.796-25.124.042-7.293-.641-15.345-2.808-22.948-.88-3.095-2.008-6.111-3.433-8.975C14.029-12.042 0 8.014 0 8.014" id="x1mkpel8vc"/>
        <path d="m0 8.014 14.719 60.335s7.055 2.14 14.387 0c0 0 2.716-11.18 2.792-25.124.046-7.293-.637-15.345-2.805-22.948-.88-3.095-2.012-6.111-3.437-8.975C14.026-12.042 0 8.014 0 8.014" id="2i0mvdjkae"/>
        <path d="M33 62.262 25.739 66s-4.345-5.623-8.224-12.417c-2.715-4.754-5.21-10.089-5.82-14.458C10.212 28.514-1.09 11.075.085 8.103 1.262 5.134 23.676 0 23.676 0s4.382 29.81 7.295 49.084c.85 5.623 1.573 10.352 2.03 13.178" id="nljurrqgfg"/>
        <path d="M41.8 6.92s-8.957 12.863-14.383 30.942c-1.276 4.26-5.627 9.564-10.025 14.275-4.267 4.573-8.577 8.59-10.171 10.563L0 59.168s2.537-7.412 6.292-14.133c1.393-2.504 2.95-4.908 4.614-6.801 2.3-2.621 1.543-35.707 3.832-37.885C17.03-1.833 41.8 6.92 41.8 6.92" id="3fdd0hy4ui"/>
    </defs>
    <g fill="none" fill-rule="evenodd">
        <g transform="translate(0 2.644)">
            <mask id="m7j2irralb" fill="#fff">
                <use xlink:href="#k5c5gmwija"/>
            </mask>
            <use fill="#ECF4FA" xlink:href="#k5c5gmwija"/>
            <path d="M1649 595.375s4.5-8.834 15.26-7.852c0 0 15.623-14.723 32.282-1.963 0 0 17.71-3.162 30.826 2.737 8.744 3.933 11.632 8.06 11.632 8.06l-90-.982M1339.915 201.343s18.197-40.855 61.72-36.316c0 0 63.187-68.093 130.563-9.079 0 0 71.628-14.622 124.665 12.661 35.372 18.191 47.052 37.274 47.052 37.274l-364-4.54M79 200.054s26.1-50.994 88.5-45.328c0 0 90.59-84.993 187.19-11.332 0 0 102.69-18.25 178.74 15.803 50.7 22.705 67.45 46.523 67.45 46.523L79 200.054M69.96 535.789s6.2-12.146 21.025-10.797c0 0 21.526-20.244 44.477-2.699 0 0 24.4-4.347 42.472 3.764 12.047 5.408 16.026 11.081 16.026 11.081l-124-1.35" fill="#F8FCFF" mask="url(#m7j2irralb)"/>
            <ellipse fill="#A9D4A1" mask="url(#m7j2irralb)" cx="223" cy="1099" rx="384" ry="121"/>
            <ellipse fill="#A9D4A1" mask="url(#m7j2irralb)" cx="1240" cy="1109" rx="252" ry="121"/>
            <ellipse fill="#A9D4A1" mask="url(#m7j2irralb)" cx="1561" cy="1115" rx="449" ry="121"/>
            <ellipse fill="#A9D4A1" mask="url(#m7j2irralb)" cx="799" cy="1130" rx="597" ry="121"/>
            <g mask="url(#m7j2irralb)" fill="#A9D4A1">
                <path d="M1296.714 993.356c29.602-59.701 50.746-85.13 63.432-76.289 12.686 8.842-8.458 34.272-63.432 76.29zM1307.714 999.356c28.657-23.91 47.306-31.33 55.948-22.256 8.641 9.074-10.008 16.492-55.948 22.256z"/>
            </g>
            <g mask="url(#m7j2irralb)" fill="#A9D4A1">
                <path d="M266.567 992.356c-1.348-25.237-8.89-37.856-22.625-37.856s-6.193 12.619 22.625 37.856zM267 989.498c28.662-56.095 51.024-78.792 67.085-68.092 16.061 10.7-6.3 33.397-67.085 68.092zM285.246 983.498c33.338-19.967 51.485-25.46 54.44-16.482 2.956 8.98-15.19 14.473-54.44 16.482z"/>
            </g>
            <g mask="url(#m7j2irralb)">
                <path d="m222 800.646-5.875 1.11s-16.076-25.352-16.538-33.081c-.445-7.384-14.932-39.692 2.028-59.86a31.958 31.958 0 0 1 2.498-2.664c.029-.035.063-.065.096-.095 0 0 .03.047.084.142.344.588 1.692 3.078 3.27 8.583 2.473 8.606 5.53 24.583 6.252 52.177 0 0 3.945 23.623 8.185 33.688" fill="#F4A671"/>
                <path d="m167.492 910.936.022.209c.015.12.03.233.033.332.84 8.044 2.58 16.192 4.654 23.766 5.412 19.758 13.207 34.813 13.207 34.813l6.462-.607s-3.532-15.202-3.84-35.85c-.21-14.436 1.155-31.534 6.408-47.955a317.26 317.26 0 0 0 7.428-27.332c6.263-27.968 7.07-49.756 6.918-61.1-.074-5.597-.381-8.656-.381-8.656l-36.328 5.19-1.694.24c.245 16.929.355 39.916.403 57.893.012 4.332.019 8.377.026 11.972.008 4.99.011 9.118.011 11.976v4.332c-2.071 4.807-3.2 10.2-3.625 15.897-.355 4.802-.211 9.82.296 14.88" fill="#F99746"/>
                <path d="M181.303 962.4c-.159-.864-.382-1.958-.638-3.154-2.623-6.28-5.91-15.017-8.605-24.933 9.162.78 13.676-.474 15.849-1.657a205.55 205.55 0 0 0 1.42 21.18c.956 3.644 2.713 9.47 4.726 11.912 3.203 3.884 6.732 7.223 10.99 9.421.477.243-10.659 4.232-16.353 3.624-5.694-.608-10.396-1.64-9.876-5.226.182-1.263.501-2.563.994-3.708.915-2.11 1.967-4.891 1.493-7.458" fill="#FFB27D"/>
                <path d="m176.9 880.588-7.274-5.132v4.343c-2.02 4.82-3.12 10.226-3.535 15.938-.346 4.814.705 7.951 1.2 13.024l9.609-28.173z" fill="#E07D32"/>
                <path d="M189.086 980.236c5.895-.33 4.246 1.142 12.431 1.815 8.186.668 11.181-2.019 11.652-3.238.42-1.084-3.472-2.276-7.628-3.653l-.056.081s-5.454 2.656-12.158 1.481c-5.464-.952-10.93-3.77-14.699-4.466-.32 1.305-.642 2.642-.628 4.02.038 3.901 5.192 4.29 11.086 3.96" fill="#1C468A"/>
                <path d="M169.2 793.923c.247 16.73.36 39.446.408 57.212.012 4.281 7.586 25.168 7.594 28.721 6.124-8.615 11.425-68.184 19.906-83.256-.075-5.531 10.592-8.044 10.592-8.044l-36.784 5.128-1.716.239" fill="#E07D32"/>
                <path d="M162.762 636.089c-.217-.757-2.976-9.292-16.335-6.459 0 0 6.69-.84 8.523 1.728 0 0-5.302-2.42-8.622-.395-3.32 2.025-3.865 8.839-3.37 10.913.496 2.074 4.163 8.246 6.59 8.246.92 0 1.903-.305 2.77-.683a31.738 31.738 0 0 0-.985 3.597c-2.579 12.091 5.49 21.282 9.662 19.01 2.675-1.456 4.7 3.21 4.7 3.21l22.205-29.331s-15.474-18.528-25.138-9.836" fill="#FB973B"/>
                <path d="M198.953 779.558c-10.2-32.485.978-39.547-.085-55.803-1.062-16.259-13.694-33.736-13.694-33.736s-.644-.065-1.734-.163c-.848-.445-1.074-3.98-1.064-7.709.01-4.475.355-9.225.355-9.225l-15.15-2.99-.9-.176c.037 10.506-2.74 17.404-4.75 19.01-1.894.216-9.964 1.228-14.937 3.3-1.875.779-3.305 1.71-3.805 2.801-4.16 9.115-8.314 32.116-11.234 48.526-1.626 9.143-2.867 16.243-3.515 17.745-1.806 4.2-7.324 27.29-12.04 38.681l4.276 5.237s21.61-36.273 23.415-44.818c.59-2.78 2.034-8.347 3.72-14.584.254-.942.515-1.901.778-2.868 2.977 8.042 4.497 11.763 4.413 15.238-.117 4.944-3.482 9.39-10.516 25.105-3.885 8.682 66.88 29.605 56.467-3.571" fill="#FFB27D"/>
                <path d="M182.4 674.917s-.325 4.706-.335 9.14c-8.002-.237-12.231-7.87-13.965-12.1l14.3 2.96" fill="#E8945B"/>
                <path d="M166.04 670.856s-4.443-6.945-5.51-12.885c-.761-4.24 1.422-19.957 17.387-17.693 0 0 4.637.452 8.995 3.364 3.466 2.316 8.469 7.316 2.876 21.031l-1.453 4.633-22.295 1.55" fill="#FB973B"/>
                <path d="M185.49 679.655s-20.446.334-20.46-12.254c-.014-12.588-2.663-21.023 10.391-21.768 13.054-.745 15.596 4.056 16.634 8.256 1.04 4.2-1.246 25.355-6.565 25.766" fill="#FFB27D"/>
                <path d="M176.23 885.333c-1.282 2.366-13.989 17.413-26.75 34.072a171.793 171.793 0 0 0-3.388 4.574c-7.521 10.43-16.18 24.032-21.354 30.655-4.704 6.02-8.93-1.52-6.557-6.894 3.743-8.485 6.916-23.32 10.541-34.234.834-2.524 1.698-4.84 2.595-6.82 3.903-8.597 10.485-20.628 19.733-29.951 1.605-1.62-12.39-37.612-11.39-67.385.394-11.797 2.062-22.174 5.88-28.494l37.988 1.854s5.197 79.516-7.298 102.623" fill="#F99746"/>
                <path d="M185.439 644.315c-10.88-5.947-22.269 3.07-22.269 3.07-1.357 8.938-3.87 13.87-3.87 13.87s3.698 2.252 12.223.09c2.602-.659 4.926-2.478 6.9-4.688-3.449 5.696-8.14 9.8-8.14 9.8 10.183-4.64 14.272-18.601 14.68-20.078 1.238 1.097 3.68 3.478 4.424 5.813 1.011 3.172 1.466 9.702 3.397 9.48 0 0 4.186-9.933-.518-15.553-3.13-3.74-5.498-2.927-6.827-1.804z" fill="#FB973B"/>
                <path d="M116.28 798.456s-1.84 4.252-3.756 5.44c-1.916 1.185-3.113 3.66-2.608 5.933.504 2.273-.518 6.227 1.902 6.227s8.066-10.479 8.771-12.458c.706-1.974 1.311-2.372 1.311-2.372l-5.62-2.77" fill="#FFB27D"/>
                <path d="M138.3 795.835c-.064 1.293.004 2.326.232 3.067.794 2.569 3.518 3.74 10.103 3.038 4.026-.431 5.82-7.373 6.62-13.298 2.418 8.477 5.803 13.23 10.18 14.23 6.384 1.465 40.884 3.921 42.992-11.84 2.319-17.332-6.917-46.454-7.298-63.003.946-5.87 1.27-10.963 1.168-15.34-.27-11.788-3.63-18.396-6.215-21.057-.732-.578-1.465-.94-4.403-1.458-1.502-.263-3.583-.568-6.532-.967 0 0-1.268-.168-1.24-.123.544 1.003 6.407 9.888 5.838 12.812-.596 3.06-23.135 2.619-24.919.936-1.784-1.683-6.44-14.376-6.44-14.376s-9.161 1.03-13.643 4.385l.048.06c-.541.4-.946.824-1.178 1.276-4.781 9.37-9.556 33.02-12.913 49.886 8.139 4.62 15.249 3.243 17.456 2.636-2.885 19.428-9.426 40.286-9.856 49.136M179.1 671.84s.401 1.45 4.435 1.183c0 0 3.386-.223 3.262-1.822 0 0-3.302-1.103-7.697.638" fill="#FFF"/>
                <path d="M146.1 924.32c-7.523 10.323-16.184 23.783-21.36 30.338-4.705 5.957-8.932-1.505-6.56-6.823 3.746-8.398 6.92-23.078 10.545-33.879 2.437 3.612 7.412 8.27 17.375 10.364M120.053 802.856s1.388 5.101.38 6.703c-1.01 1.602-.331 3.683-2.36 3.096-2.028-.588 1.98-9.799 1.98-9.799" fill="#FFB27D"/>
                <path d="M108.994 949.834c-3.06 1.95-.611 6.37 2.8 11.042 3.41 4.673 1.368 4.045 5.214 11.088 3.845 7.048 7.568 8.18 8.78 7.97 1.077-.19-.06-3.967-1.196-8.056-.144-.513-.284-1.03-.423-1.55-1.236-4.63.354-8.997 1.108-13.938.713-4.68 7.623-13.947 7.623-13.947l-4.949-9.787s-6.071 8.523-8.815 11.972c-1.613 2.033-4.425 3.057-6.638 3.747-1.201.376-2.427.769-3.504 1.459" fill="#FFB27D"/>
                <path d="M111.81 961.783c3.426 4.72 1.375 4.086 5.238 11.2 3.862 7.12 7.6 8.263 8.818 8.05 1.081-.192-.061-4.006-1.202-8.137l-.092-.004s-5.032-3.2-7.7-9.34c-2.177-5.003-2.879-10.932-4.353-14.396-1.207.38-2.438.776-3.519 1.473-3.073 1.97-.614 6.435 2.81 11.154" fill="#1C468A"/>
                <path d="M194.261 691.756s5.81-.027 9.868 7.95c4.058 7.975 10.171 33.908 10.171 33.908s-7.129 8.12-15.482 6.267c-8.354-1.856-4.557-48.125-4.557-48.125" fill="#FFF"/>
                <path d="M221.098 799.356s5.13 6.064 5.288 8.279c.208 2.93-1.928 7.757-3.321 7.29-1.395-.468-1.565-2.844-1.967-4.661-.403-1.818-2.231-3.767-2.125-2.948.106.824 1.178 4.053.847 4.57-.332.518-.734.422-1.525-1.126-.95-1.858-3-4.45-2.732-6.366.288-2.062.327-2.505-.405-4.988-.732-2.484-1.958-5.465-1.958-5.465l4.351-.985 3.547 6.4" fill="#F4A671"/>
                <g>
                    <path d="M131.001 648.856s31.84 54.62 25.452 73.456c-6.384 18.838-27.753 20.044-27.753 20.044l2.301-93.5" fill="#F9DDBF"/>
                    <path d="M148.5 986.556h-43.893c-3.145-2.143.848-23.078.848-23.078s11.981-4.563 14.049 4.718c2.076 9.272 15.259 12.223 22.234 13.354 4.778.778 6.287 3.416 6.762 5.006M83.6 986.556H39.707c-3.145-2.143.849-23.078.849-23.078s11.979-4.563 14.048 4.718c2.075 9.272 15.258 12.223 22.235 13.354 4.775.778 6.284 3.416 6.761 5.006" fill="#233862"/>
                    <path d="M136.4 774.363s-1.968 24.591-4.28 54.151c-3.145 40.156-11.627 139.715-11.627 139.715s-5.562 4.749-17.877 2.15c0 0-10.484-34.346-13.619-73.544l-.146-1.937c-2.916-39.91-7.451-123.942-7.451-123.942l55 3.407" fill="#2B478B"/>
                    <path d="m131.408 828.071-42.445 68.307c-.049-.645-8.663-125.835-8.663-125.835l56.1-5.087s-2.662 33.07-4.992 62.615z" fill="#233862"/>
                    <path d="M124.3 765.095s-31.058 77.834-40.986 107.334c-7.072 21.019-27.016 94.74-27.016 94.74s-8.672 2.658-15.961-2.479c0 0-7.42-75.322 7.568-96.558C55.857 856.862 49.88 751 82.122 750.094c32.24-.907 42.178 15 42.178 15" fill="#2B478B"/>
                    <path d="M110.429 649.863c-4.873 2.525-9.629 2.682-13.752 1.821-3.772-.78-7.011-2.418-9.318-3.868-2.367-1.488-3.759-2.784-3.759-2.784s.165-.235.442-.695c1.44-2.423 5.806-11.13 3.864-25.122-.026-.183 1.383.077 3.512.572 6.334 1.475 19.07 5.027 19.63 5.185h.022s.157 2.943.684 8.218c.042.464.089.95.14 1.454.068.618.131 1.275.208 1.948.59 5.484-1.673 13.271-1.673 13.271" fill="#FFB27D"/>
                    <path d="M111.792 633.678c-9.269 2.065-22.692-11.675-22.692-11.675a14.717 14.717 0 0 1 3.17-1.747c6.208 1.43 18.69 4.87 19.24 5.023h.02" fill="#ED975D"/>
                    <path d="M141.587 753.268c-.68 8.977-2.581 15.404-6.753 15.404 0 0-18.537 6.508-40.69 6.684-4.33.029-10.466-.812-15.55-1.662a232.277 232.277 0 0 1-9.31-1.762c-4.455-1.025-9.371-3.766-8.71-8.834.348-2.695.601-6.155.773-10.164l.035-.779c.489-11.73.41-27.895.47-43.37.042-9.505.136-18.744.457-26.538 0 0-4.373-30.614.48-35.637 5.69-5.877 22.393-7.68 23.44-7.455.314-.066.63-.144.95-.199 0 0 14.527 7.906 25.098 1.99 0 0 15.419 3.501 19.855 8.177 1.531 1.61 7.638 11.492 7.805 22.345.231 15.132-.36 32.32-.36 32.325.16 2.459.423 5.627.713 9.243.31 3.854.65 8.207.94 12.747.147 2.29.281 4.62.39 6.955.328 7.206.428 14.454-.033 20.53" fill="#F9DDBF"/>
                    <path d="M85.8 638.956s15.913 16.043 27.29 12.756c0 0 1.518-2.166-3.606-2.86-5.125-.695-10.656-.411-23.684-9.896" fill="#F2CCAA"/>
                    <path d="M115.055 624.476s-3.92 1.377-8.924 2.035c-7.315.966-16.933.397-19.955-8.26-5.09-14.571-11.59-23.307 3.386-29.258 8.018-3.185 13.147-3.354 16.633-2.138 3.025 1.049 4.811 3.145 6.161 5.218 2.91 4.46 8.757 29.852 2.7 32.403" fill="#FFB27D"/>
                    <path d="M113.253 584.138c3.27.795 4.747 5.948 1.63 8.091-5.59 3.841-12.415 2.334-14.93 3.452-3.605 1.6-4.252 7.642-4.317 9.56-.065 1.921-.318 3.54-5.213 2.391-.802-.187-1.38-.132-1.777.107-2.03 1.203.564 7.039 1.347 8.302 0 0 1.126 4.18-1.373 6.214-.303.244-5.213 2.388-17.045-15.707-1.86-2.84-3.636-9.24-.764-15.4 2.869-6.161 11.742-13.79 22.39-13.792 8.424 0 13.124 5.1 20.052 6.782" fill="#F9DDBF"/>
                    <path d="M115.495 614.758s.358 2.184-4.783 3.928c0 0-4.32 1.465-5.112-.776 0 0 3.43-3.226 9.895-3.152" fill="#FFF"/>
                    <path d="M100.1 741.076s11.848 7.318 16.426 7.786c3.112.318 15.406-.154 15.473-1.608.097-2.051-7.51-4.22-9.48-5.046-1.97-.825-3.51-1.777-3.498-2.57.017-.798 7.619 1.835 6.8.102-.82-1.737-7.846-4.76-9.547-5.05-1.697-.291-7.17 1.446-9.299.526-2.128-.92-6.875 5.86-6.875 5.86" fill="#ED975D"/>
                    <path d="M98.021 740.809s-18.528 8.846-37.521 10.347l.034-.775c.484-11.69 1.219-27.802 1.277-43.225 0 0 38.784 22 41.353 26.842 1.56 2.936-5.143 6.811-5.143 6.811z" fill="#F2CCAA"/>
                    <path d="M65.364 645.556s-7.231.093-16.763 17.938c-9.532 17.845-18.549 55.634-14.684 61.775 3.864 6.146 36.407 20.211 64.776 16.461 0 0 7.038-6.42 5.618-8.893 0 0-47.566-19.43-47.595-21.754-.03-2.324 16.968-22.346 17.935-32.314.966-9.969-7.576-34.619-7.576-34.619l-1.71 1.406z" fill="#F9DDBF"/>
                    <path d="M114.645 688.456s-.552 6.653 0 8.378c.553 1.725 16.408 2.112 16.81.493.398-1.619.995-6.53 0-7.392-.995-.862-16.81-1.479-16.81-1.479" fill="#FFB27D"/>
                    <path d="M124.061 744.556h-3.753c-9.3 0-16.908-7.32-16.908-16.265v-15.586c0-8.946.202-16.895 10.202-19.849l17.576 1.277c15.184 4.032 9.792 9.626 9.792 18.572v15.586c0 8.946-7.61 16.265-16.909 16.265" fill="#FFB27D"/>
                    <path d="M132 694.105s3.975 1.047 6.817-.564c4.099-2.323 9.003-3.624 9.857-4.686 1.454-1.798 8.526-9.199 8.526-9.199l3.4 2.331s-3.277 13.672-5.926 16.113c-2.65 2.442-7.397 11.111-15.4 12.339-4.157.638-7.274-16.334-7.274-16.334" fill="#FFB27D"/>
                    <path d="M156.875 680.397s-1.346-3.775-.236-4.27c1.114-.495 1.76 2.253 1.76 2.253s2.899-6.244 5.846-3.548c2.946 2.697-3.679 8.124-3.679 8.124l-3.69-2.559M113.3 693.005s-3.975 1.047-6.817-.564c-4.1-2.323-9.002-3.624-9.86-4.686-1.45-1.798-8.524-9.199-8.524-9.199l-3.399 2.331S87.974 694.56 90.624 697c2.651 2.442 7.399 11.111 15.399 12.339 4.156.638 7.277-16.334 7.277-16.334" fill="#FFB27D"/>
                    <path d="M88.425 679.297s1.347-3.775.235-4.27c-1.113-.495-1.762 2.253-1.762 2.253s-2.897-6.244-5.843-3.548c-2.946 2.697 3.68 8.124 3.68 8.124l3.69-2.559M137.978 722.556s9.8 4.28 14.967 5.797c4.823 1.41 10.784 4.777 10.908 5.325.123.544.187 5.308-2.256 6.242-2.443.935-28.961 4.71-32.897 3.173 0 0 2.831-18.936 9.278-20.537" fill="#FFB27D"/>
                    <path d="M163.9 723.656s-4.525.318-7.184 3.643c0 0-1.086 1.445-3.023.825 0 0-7.118 4.547-2.58 13.132 0 0 9.591-.599 10.958-1.883 1.367-1.284 1.829-15.717 1.829-15.717" fill="#FFF"/>
                    <path d="M162.156 739.053s4.933-1.113 5.821-5.808c.893-4.699-.025-9.14-3.278-9.532-3.25-.392-5.303 1.282-6.192 3.523-.893 2.236-3.508 12.039 3.649 11.817" fill="#AFCDFB"/>
                    <path d="M123.677 655.46s9.704-.438 13.402 8.839c3.702 9.277 4.427 25.23-4.155 27.744-5.85 1.716-12.153.506-17.799-1.67-2.986-1.148-4-3.676-5.704-5.675-10.946-12.842-7.41-28.092 14.256-29.238" fill="#FFB27D"/>
                    <path d="M105.507 719.256s18.795 4.151 36.204 0c0 0 1.993 3.496 2.249 4.543.549 2.215-.438 5.856-4.312 10.492-5.695 6.818-25.16 11.904-31.984 7.545-5.982-3.824-7.33-16.834-2.157-22.58" fill="#FFF"/>
                    <path d="M125.688 727.454c3.582 1.205 8.771 4.012 13.436 6.536 4.356 2.351 9.376 6.789 9.376 7.33 0 .54-.99 5.035-3.557 5.395-2.567.361-29.05-1.724-32.518-4.01 0 0-4.01-1.111-4.525-5.548-.753-6.45 2.516-14.857 17.788-9.703" fill="#FFB27D"/>
                    <path d="M150.7 732.533s-4.388-.648-7.644 1.828c0 0-1.35 1.095-3.063.127 0 0-7.778 2.669-5.309 11.431 0 0 9.289 1.435 10.869.548 1.58-.891 5.147-13.934 5.147-13.934" fill="#FFF"/>
                    <path d="M145.602 746.756s5.042-.043 6.992-4.284c1.95-4.237 2.09-8.603-.973-9.633-3.067-1.026-5.44.129-6.823 2.056-1.383 1.928-6.188 10.617.804 11.861" fill="#AFCDFB"/>
                    <path d="M128.7 683.252s2.012 2.66 4.652 1.693c2.644-.966 3.048-4.189 3.048-4.189s-3.848 0-7.7 2.496" fill="#FFF"/>
                    <path d="M116.773 677.264s-4.065-3.729-5.358-1.023c-1.294 2.705 1.664 6.666 4.065 6.715 2.401.049 2.89-4.5 1.293-5.692" fill="#ED975D"/>
                    <path d="M116.927 677.79s-3.387-2.663-4.463-.73c-1.081 1.932 1.382 4.761 3.386 4.796 2 .035 2.41-3.215 1.077-4.066" fill="#FFB27D"/>
                    <path d="M113.701 660.322s4.768 6.362 14.792 6.128c0 0 3.94-.56 5.608-3.06 0 0-3.16 1.245-4.832.718 0 0 9.45-1.416 9.33-3.896-.12-2.479-5.077-5.258-8.695-5.683-2.881-.34-11.59-.283-14.226 1.135-2.637 1.418-2.714 3.83-1.977 4.658" fill="#FF9843"/>
                    <path d="M117.374 655.456s-10.754 1.738-12.667 10.265c-.77 3.43.857 8.435.857 8.435s-.216-10.15 8.383-10.576c6.255-.31 10.353-.941 10.353-.941l-6.926-7.183" fill="#FF9843"/>
                    <path d="M118.8 705.506a.551.551 0 1 1-1.102-.002.551.551 0 0 1 1.102.002M135.3 705.506a.551.551 0 1 1-1.098-.002.551.551 0 0 1 1.098.002M149.285 717.06c-.514-1.805-1.896-3.293-3.732-4.08-2.338-.998-5.654-2.34-7.169-2.593-2.462-.411-7.499-3.145-7.91-1.725-.413 1.42 3.556 3.063 3.573 4.63.021 1.563-11.137 5.394-10.841 7.017.296 1.622 3.48 5.255 7.803 4.285 4.325-.97 15.063-3.292 17.543-3.933 1.313-.34 1.184-2.022.733-3.601" fill="#ED975D"/>
                </g>
                <g>
                    <path d="M1587.923 807.456s-7.535.494-10.605 2.316c-3.07 1.823-5.852 2.521-5.303 3.364.548.84 5.927-.947 6.036 0 .109.944-4.75 3.786-6.103 3.995-1.357.208-4.432.63-3.883 2.312.549 1.682 5.75 2.208 9.898 2.312 4.146.104 14.237-6.306 14.237-6.306l-4.277-7.993" fill="#FFB27D"/>
                    <path d="M1592.164 816.256c7.562-.004 32.506-16.762 40.89-23.53.909-.734 1.615-1.352 2.072-1.82 3.127-3.202 13.906-19 21.555-33.074 4.406-8.103 7.774-15.63 8.04-19.852.95-15.06-6.927-36.124-6.927-36.124-23.312 8.157-25.766 26.87-25.766 26.87l-11.947 44.704a11.924 11.924 0 0 1-3.87 6.074l-31.588 26.398c-1.063 4.522 5.02 10.354 7.541 10.354" fill="#F9DDBF"/>
                    <path d="M1632.9 793.156c.915-.738 1.626-1.358 2.086-1.828 3.147-3.217 13.998-19.085 21.697-33.221.995-8.538.314-16.552-3.197-22.15 0 0-19.946 35.212-20.586 57.2" fill="#F2CCAA"/>
                    <g transform="translate(1647.2 925.156)">
                        <mask id="j5tr4zf7qd" fill="#fff">
                            <use xlink:href="#x1mkpel8vc"/>
                        </mask>
                        <use fill="#FFB27D" xlink:href="#x1mkpel8vc"/>
                        <path d="m3.3 24.35 2.535 10.602c4.32 2.76 13.631 7.757 26.063 9.048.043-7.619-.657-16.03-2.879-23.972-3.653-1.855-7.37-2.828-10.533-2.273-7.88 1.378-12.565 4.262-15.186 6.595" fill="#E8945B" mask="url(#j5tr4zf7qd)"/>
                    </g>
                    <path d="M1640.6 1002.156h38.394s.607-5.553-1.084-10.868a18.5 18.5 0 0 0-.915-2.332s-8.572 1.86-15.96 0c0 0-6.951 5.66-11.152 7.393-4.197 1.736-8.838.794-9.283 5.807" fill="#2B478B"/>
                    <path d="M1657.1 1002.156h20.78s.684-6.182-1.22-12.1c-5.218 1.54-15.835 5.387-19.56 12.1" fill="#1F396D"/>
                    <g transform="translate(1678 925.156)">
                        <mask id="hg9mja6fpf" fill="#fff">
                            <use xlink:href="#2i0mvdjkae"/>
                        </mask>
                        <use fill="#FFB27D" xlink:href="#2i0mvdjkae"/>
                        <path d="m4.4 24.35 2.54 10.602c4.314 2.76 13.626 7.757 26.058 9.048.047-7.619-.653-16.03-2.875-23.972-3.653-1.855-7.37-2.828-10.537-2.273C11.71 19.133 7.026 22.017 4.4 24.35" fill="#E8945B" mask="url(#hg9mja6fpf)"/>
                    </g>
                    <path d="M1706.699 988.956s-8.572 1.86-15.964 0c0 0-6.947 5.66-11.148 7.393-4.201 1.736-8.842.794-9.287 5.807h38.393s.802-7.325-1.994-13.2" fill="#2B478B"/>
                    <path d="M1640.614 951.54c14.587 9.15 75.36 2.606 75.855-6.25 0 0-3.005-22.19-4.028-31.48-.427-3.863-.621-6.953-.376-8.565 6.323-41.318 11.628-89.99 10.981-99.288-.088-1.312-.152-1.988-.152-1.988s-4.56-.38-11.501-.647c-20.166-.785-60.423-.648-67.11 12.38-6.814 13.27-6.983 90.374-6.983 90.374 0 21.204 3.314 45.465 3.314 45.465" fill="#F99746"/>
                    <path d="M1711.462 913.056c-.422-3.845-.614-6.921-.372-8.526 6.252-41.136 11.496-89.592 10.857-98.85a86.63 86.63 0 0 0-.15-1.98s-4.51-.378-11.372-.644c-10.313 6.045-17.025 16.342-17.025 16.342s2.077 76.98 18.062 93.658" fill="#ED7D2B"/>
                    <path d="M1684.6 642.964c0-5.188-2.969-8.932-8.694-9.29-4.2-.261-10.006 2.297-10.006 7.485 0 5.187 4.185 11.197 9.348 11.197 5.167 0 9.352-4.205 9.352-9.392" fill="#A4AFBF"/>
                    <path d="M1675.893 683.156s23.022-21.133 5.31-37.37a13.215 13.215 0 0 0-6.062-3.164c-6.198-1.378-19.97-3.314-26.935 4.53-7.5 8.447-10.467 14.872-4.213 22.573 6.251 7.701 31.9 13.431 31.9 13.431" fill="#BAC7DA"/>
                    <path d="M1707.323 820.757s-1.05 4.081-.62 8.93c.603 6.822 1.846 10.566 6.252 12.785 0 0 5.089 3.497 5.871-1.05.779-4.543-.765-4.703.46-11.074 1.23-6.376.302-11.221-3.347-14.092l-8.616 4.501M1654.9 681.27s.314 3.467.909 8.152c.284 2.29.636 4.872 1.05 7.48.294 1.874.62 3.764.98 5.571l7.994 26.883 18.767-30.247s-4.413-3.634-10.389-23.33c-.058-.21-.096-.323-.096-.323l-19.215 5.814" fill="#FFB27D"/>
                    <path d="M1644.41 814.019c-.24 3.04.52 3.59.52 3.59s11.436 4.19 40.202 2.743c3.112-.16 6.042-.318 8.78-.482 18.537-1.103 28.45-2.26 28.45-2.26s15.185-35.423-13.34-79.067c-3.225-4.933-7.01-9.973-11.437-15.077-4.619-5.326-5.64-12.452-7.386-19.223-.503-1.941.946-2.37.224-4.2 0 0-5.204-1.487-5.74-1.487-2.954 2.631-6.85 7.745-16.523 8.756-6.54.69-9.1-3.035-10.03-5.268-2.494.91-5.075 2.484-7.192 3.511-17.528 8.505-19.138 25.002-19.138 25.002s16.105 53.53 17.105 60.216c.448 2.974-3.245 7.596-4.494 23.246" fill="#F9DDBF"/>
                    <path d="M1656 690.166c.283 2.232.633 4.748 1.045 7.29 20.39-7.743 17.795-18.584 17.258-20.585a7.483 7.483 0 0 0-.096-.315s-10.461 7.245-18.207 13.61" fill="#E8945B"/>
                    <path d="M1652.231 693.05s22.893.755 23.131-13.909c.238-14.663 3.354-24.44-11.254-25.543-14.603-1.102-17.535 4.444-18.775 9.319-1.236 4.874.952 29.558 6.898 30.133" fill="#FFB27D"/>
                    <path d="M1651.6 651.417s1.4 27.558 28.6 24.967c0 0-.582-36.852-28.6-24.967" fill="#BAC7DA"/>
                    <path d="M1654.9 654.556s-8.425 5.07-11.045 13.2c0 0-9.394-12.914 11.045-13.2" fill="#A4AFBF"/>
                    <path d="M1694.213 820.656c18.365-1.104 28.187-2.263 28.187-2.263s15.043-35.454-13.218-79.137c-5.723 13.62-19.216 50.014-14.969 81.4" fill="#F2CCAA"/>
                    <path d="M1685.232 699.656s22.11 4.524 31.962 15.897c7.547 8.714 15.806 51.32 15.806 58.362 0 6.726-7.759 42.496-12.6 49.355-.337.474-.896.74-1.476.677l-12.453-1.317a1.827 1.827 0 0 1-1.618-2.091l6.996-45.215-24.557-43.43s-14.48-17.112-2.06-32.238" fill="#F9DDBF"/>
                    <path d="M1708.04 822.856s-3.26 9.94-2.393 10.863c.871.923 3.153-3.11 3.153-3.11l-.76-7.753" fill="#FFB27D"/>
                    <path d="M1648.3 682.22s.734 2.553 1.92 2.792c1.187.239 3.085.638 4.747 0 1.657-.638 2.133-1.994 2.133-1.994s-3.764-1.436-8.8-.798" fill="#FFF"/>
                    <g>
                        <path d="m1700 1006.556-.642-184.628s-1.446-13.305-13.348-13.372c-12.701-.074-13.51 13.218-13.51 13.218s.175 1.15 1.48 1.16c1.365.008 1.596-1.143 1.596-1.143s.625-10.249 10.417-10.19c9.173.054 10.29 10.31 10.29 10.31l-1.126 184.62 4.843.025" fill="#233862"/>
                        <path d="m1685.316 798.656-.555 2.597s-13.373-.127-16.586 13.614c0 0-.884 5.722 3.422 4.524 4.311-1.197 3.658-4.122 9.759-5.689 6.097-1.567 10.07-2.769 11.023-7.018l1.021-4.73-8.084-3.298" fill="#FFB27D"/>
                        <path d="M1731.9 684.256s-3.5 13.494-6.52 25.832c-1.213 4.97-2.352 9.75-3.156 13.387-.821 3.735-1.288 6.265-1.118 6.547 2.541 4.198-2.29 29.662-6.05 38.9-.33.817-.788 1.78-1.332 2.841-5.24 10.175-19.142 30.118-19.142 30.118s-3.892.386-6.433-.593c-2.117-.821-3.549-3.438-3.549-3.438 1.242-1.987 6.371-25.519 12.866-38.692 2.781-5.633 7.134-58.047 12.494-65.075 4.47-5.863 21.94-9.827 21.94-9.827" fill="#F99746"/>
                        <path d="M1719.792 730.794c2.518 4.17-2.268 29.464-5.992 38.64-.327.812-.78 1.767-1.32 2.822-4.774-21.886 3.531-52.8 3.531-52.8 2.024.822 3.63 2.516 4.889 4.835-.813 3.71-1.275 6.223-1.108 6.503" fill="#ED7D2B"/>
                        <path d="M1754.815 986.403s1.214 20.976-2.583 21.247c-.502.035-19.25-.079-19.25-.079l-24.182-.153s.44-6.158 7.444-7.385c7.004-1.227 18.74-6.284 23.035-15.901 4.513-10.119 15.536 2.27 15.536 2.27" fill="#0F2949"/>
                        <path d="M1792.215 987.506s1.214 20.973-2.583 21.244c-.506.035-19.252-.083-19.252-.083l-24.18-.149s.444-6.157 7.447-7.384c7-1.231 18.738-6.284 23.029-15.903 4.517-10.118 15.54 2.275 15.54 2.275" fill="#163560"/>
                        <path d="M1756.911 937.767c.535 8.464 1.661 19.35 1.18 29.158-.674 13.708-1.167 25.27-1.167 25.27-8.937 3.02-25.278-.805-25.278-.805s-5.603-34.693-10.22-62.388c-2.071-12.408-3.79-23.144-4.427-28.212-2.055-16.38 2.899-103.379 2.899-103.379s24.22-15.538 34.144-7.394c9.92 8.144 16.012 16.08-.571 104.538-1.258 6.71 2.244 24.248 3.44 43.212" fill="#2B478B"/>
                        <path d="M1756.911 937.414c.535 8.445 1.534 21.958 1.053 31.742-8.337-9.031-24.76-28.079-36.537-40.486-2.072-12.379-3.79-23.09-4.428-28.146-2.055-16.341 2.899-103.136 2.899-103.136s24.22-15.501 34.144-7.376c9.92 8.125 16.012 16.041-.571 104.291-1.258 6.695 2.244 24.192 3.44 43.11" fill="#233862"/>
                        <path d="M1741.8 799.499s1.653 87.12 4.938 103.289c3.285 16.17 20.48 90.212 20.48 90.212s16.52 1.63 25.182-2.08c0 0-.353-34.243-3.166-54.376-2.625-18.812-7.435-36.023-6.693-42.812 9.81-89.478 3.15-96.917-7.337-104.264-10.483-7.348-33.404 10.03-33.404 10.03" fill="#2B478B"/>
                        <path d="M1775.175 807.324s-5.582 11.783 4.97 20.88c0 0 4.579 3.385 5.31-.975.726-4.356-.095-2.842 1.05-8.953 1.142-6.11-.24-12.445-3.524-15.22l-7.806 4.268M1726.4 664.725s6.636 10.654 5.226 20.164l9.978 23.567 17.796-27.071s-9.03-10.565-12.515-24.629l-20.485 7.97" fill="#FFB27D"/>
                        <path d="M1723.722 673.232s24.706 1.209 25.245-13.529c.534-14.737 7.272-24.503-11.202-25.907-15.197-1.156-20.288 5.112-21.67 9.988-1.385 4.876-1.528 28.604 7.627 29.448" fill="#FFB27D"/>
                        <path d="M1783.613 803.204a715.896 715.896 0 0 1-21.264 1.512c-1.753.1-3.565.2-5.434.29-26.494 1.318-36.997-3.008-36.997-3.008s-.7-.572-.458-3.664c1.25-15.93 4.676-20.622 4.285-23.652-.883-6.813-17.145-62.465-17.145-62.465s-.216-17.55 19.444-25.671a46.594 46.594 0 0 1 6.73-2.181c.845 2.276 3.177 6.083 9.203 5.42 8.907-.98 15.279-6.165 18.01-8.829.496.003.688.02.688.02.654 1.87 1.162 3.82 1.607 5.8 1.57 6.907 2.466 14.17 6.688 19.62 4.165 5.381 7.725 10.685 10.761 15.869a130.321 130.321 0 0 1 6.534 12.673c17.137 38.285 3.528 67.727-2.652 68.266" fill="#F99746"/>
                        <path d="M1781.745 803.731c-5.47.46-13 1.024-22.132 1.525-2.392-43.265 16.146-84.7 16.146-84.7.685.47 1.335.996 1.946 1.575 3.164 3 5.358 7.438 6.8 12.776 5.328 19.642.573 51.476-2.76 68.824" fill="#ED7D2B"/>
                        <path d="M1715.798 659.83s-5.003 18.632 3.275 21.307c8.274 2.675 30.294.696 30.427-22.18 0 0-11.592 6.565-17.107 6.366-5.516-.2-9.057-3.285-14.17-.92 0 0-1.865-.13-2.425-4.573" fill="#BAC7DA"/>
                        <path d="M1760.683 680.956s17.354.485 26.45 12.264c6.972 9.025 14.11 57.278 14.067 64.537-.047 7.258-8.2 47.27-12.654 51.597 0 0-2.868.707-6.693-.041-4.053-.795-6.43-3.114-6.43-3.114s2.47-44.589 2.496-48.77c.038-6.058-19.008-43.244-19.008-43.244s-9.883-17.702 1.772-33.229" fill="#F99746"/>
                        <path d="M1748.127 639.512c-.401-1.48-2.246-2.267-2.246-2.267-13.76-5.997-23.881.417-23.881.417 8.522-11.125 28.919-8.66 33.155 1.445 6.92 16.498-5.94 19.85-5.94 19.85s-12.787-5.379-5.325-11.984c2.475-2.188 3.677-4.14 4.082-5.842.134-.567.18-1.107.155-1.619" fill="#BAC7DA"/>
                        <path d="M1718.7 667.122s1.863 2.936 5.116 2.832c3.254-.105 4.784-2.832 4.784-2.832s-5.491-1.048-9.9 0" fill="#FFF"/>
                    </g>
                </g>
                <g>
                    <g transform="translate(1451.8 932.256)">
                        <mask id="uu47hmr1hh" fill="#fff">
                            <use xlink:href="#nljurrqgfg"/>
                        </mask>
                        <use fill="#FFB27D" xlink:href="#nljurrqgfg"/>
                        <path d="M34.1 62.725 25.847 67.1S20.91 60.518 16.5 52.566c3.435-.265 9.402-1.317 15.293-5.266.966 6.582 1.788 12.117 2.307 15.425" fill="#FFF" mask="url(#uu47hmr1hh)"/>
                    </g>
                    <g transform="translate(1426.5 932.256)">
                        <mask id="fp1kh3nixj" fill="#fff">
                            <use xlink:href="#3fdd0hy4ui"/>
                        </mask>
                        <use fill="#FFB27D" xlink:href="#3fdd0hy4ui"/>
                        <path d="M17.6 52.618C13.012 57.46 8.377 61.711 6.664 63.8L-1.1 60.06s2.728-7.845 6.765-14.96c1.388 2.164 5.032 6.62 11.935 7.518" fill="#FFF" mask="url(#fp1kh3nixj)"/>
                    </g>
                    <path d="m1447.902 879.975.096.055c-.083.033-.096-.055-.096-.055M1467.2 892.656l-18.7-11.135c.103-.041.482-.6 1.88-4.59.596-1.702.911-3.179 1.067-4.352.015-.115.03-.23.041-.34.192-1.702.052-2.683.052-2.683l4.096 1.46 7.577 2.712c-.088 1.894.181 3.227.59 4.142.99 2.223 2.833 2.24 2.885 2.24l.512 12.546" fill="#FFB27D"/>
                    <path d="M1462.8 877.195c-7.697.686-12.03-4.567-12.988-5.897a6.174 6.174 0 0 1-.212-.302l.256-.077c.626-.192 2.324-.727 4.36-1.363l7.964 3.022c-.093 2.112.19 3.597.62 4.617" fill="#ED985F"/>
                    <path d="M1464.513 874.945s-16.336 1.855-16.67-9.565c-.334-11.424-2.75-16.65 8.554-17.67 11.302-1.018 13.972 3.194 14.638 7.057 2.08 12.072-1.92 19.668-6.522 20.178" fill="#FFB27D"/>
                    <path d="M1433.064 836.556c-.6-.67-1.028-1.1-1.028-1.1.449.305.784.681 1.028 1.1" fill="#D35C2B"/>
                    <path d="M1468.3 880.782s15.877-11.807 17.572-15.717c1.694-3.906 8.983-18.215 10.866-19.673 0 0 3.947-.491 4.512 2.154.565 2.645-3.759 18.337-6.772 23.074-3.013 4.741-17.45 20.803-22.19 23.136l-3.988-12.974" fill="#FFB27D"/>
                    <path d="M1507.696 838.575c-.307 1.632-.98 3.385-1.778 4.289-1.043 1.211-2.698 3.63-3.74 5.202-.675.967-1.104 1.69-1.104 1.69l-5.273-2.535s-.123-8.827 3.372-10.702c.123-.059.184-.122.307-.122a21.908 21.908 0 0 1 4.108-1.69c1.656-.425 2.943-.484 3.679-.064.674.366.797 2.12.43 3.932" fill="#FFB27D"/>
                    <path d="M1456.981 854.06c-5.838-1.479-3.606 8.865-5.08 8.157-1.652-.793-4.488-.78-4.04 1.214.447 1.993 1.093 2.706 1.43 3.949.337 1.243-.003 3.705-1.36 3.212-1.357-.498-13.984-14.913-5.069-26.142 8.915-11.228 35.5-4.312 27.13 7.431-1.473 2.066-8.853 3.233-13.01 2.18" fill="#F9DDBF"/>
                    <path d="M1483.7 960.537s-16.058 3.353-23.71 2.323c-10.307-1.392-19.444-1.629-29.09-6.814 0 0 5.126-25.363 5.441-26.596.453-1.774 3.731-15.405 6.76-28.014 2.77-11.533 5.332-22.214 5.332-22.214s7.643 5.41 12.098 3.502c4.455-1.91 3.884-4.067 3.884-4.067s2.914-1.175 4.28-.74c1.366.429 5.246-1.76 5.246-1.76s4.284 3.298 4.447 10.381a19.315 19.315 0 0 1-.223 3.399l-3.092 3.552s6.982 42.47 8.627 67.048" fill="#F99746"/>
                    <path d="M1496.897 1003.756h-21.835s-.416-3.515.085-6.523c.06-.365.253-.696.54-.986 1.278.428 3.156.73 5.245-.012a10.815 10.815 0 0 0 3.862-2.379c.226.218 4.737 4.476 6.822 4.476 2.139 0 5.405 1.02 5.28 5.424M1434.134 993.5s-.26 4.605 1.247 5.214c1.509.613 4.319 2.12 4.319 5.042h-10.435s-7.198-3.601-8.157-5.132c-.96-1.532 4.795-8.068 4.795-8.068s3.535 3.98 8.23 2.943" fill="#AA443E"/>
                    <path d="M1450.608 916.127s6.26-1.053 8.708.39c2.449 1.442 3.173 3.704 1.41 4.627-5.525 2.895-11.126-.305-11.126-.305l1.008-4.712" fill="#FFB27D"/>
                    <path d="M1448.005 880.556s-14.483 3.076-20.196 25.669a6.861 6.861 0 0 0 1.542 6.26c2.626 2.922 8.417 7.192 21.881 8.766 1.47.17 1.668-3.569 1.668-3.569-.146.296-9.147-5.835-12.978-9.132-.692-.597-.663-1.85-.163-2.613 1.294-1.983 3.466-5.41 4.196-7.166 1.065-2.567 8.098-17.05 4.05-18.215" fill="#FFB27D"/>
                    <path d="M1447.993 879.456s-8.204.61-14.893 9.98c0 0 2.263 8.618 12.89 10.92 0 0 6.55-15.516 2.003-20.9" fill="#F99746"/>
                    <path d="M1447.4 840.268s-8.353-2.256-13.97 3.793c-5.615 6.053 2.564 17.144-5.29 23.218-7.853 6.074-4.748 10.608-1.558 12.09 7.174 3.325 18.136-.817 15.906-6.428-4.287-10.793 2.057-19.01 2.057-19.01l2.855-13.663" fill="#F9DDBF"/>
                </g>
                <g>
                    <path d="M502.317 994.385s-1.69 3.17-.394 6.674c.817 2.204.902 4.523.215 6.482-.585 1.656-2.7 1.925-3.627.454l-9.786-15.535c-.832-1.322-.402-3.11.935-3.85 1.166-.651 2.514-1.417 3.522-2.046 2.201-1.373 5.333-.325 5.333-.325l3.802 8.146" fill="#2C3A64"/>
                    <path d="M529.827 964.502c-2.604 8.338-26.43 34.554-26.43 34.554s-10.19-7.626-9.945-13.143c0 0 12.55-23.816 12.68-26.737.029-.69-1.396-3.549-3.572-7.535-.294-.54-.604-1.103-.923-1.685-3.764-6.807-9.173-16.14-13.415-23.924-.102-.187-.204-.37-.302-.558-3.797-7.002-6.565-12.64-6.185-13.846 1.114-3.524 33.783-8.272 33.783-8.272s16.914 52.812 14.31 61.146" fill="#35488B"/>
                    <path d="M487.49 925.194c-.098-.19-.196-.377-.29-.568l.016-8.47 10.894-1.8 3.122 34.613c-6.44-10.565-11.02-18.49-13.741-23.775zM459.438 1003.255s-1.796 7.675.028 10.884c1.147 2.017 1.587 4.267 1.192 6.292-.328 1.713-2.404 2.322-3.555 1.036l-12.124-13.56c-1.032-1.155-.867-2.973.353-3.916a90.789 90.789 0 0 0 3.21-2.571c1.994-1.7 5.282-1.193 5.282-1.193l5.614 3.028" fill="#2C3A64"/>
                    <path d="M498.2 906.603s-12.762 45.293-17.513 56.682c-3.309 7.93-19.273 44.571-19.273 44.571s-15.935-4.956-14.862-9.972c0 0 10.172-37.572 11.997-41.82 2.364-5.51.88-43.028 9.865-49.788 8.989-6.755 29.786.327 29.786.327" fill="#35488B"/>
                    <path d="M498.2 845.435s20.573-21.153 21.7-23.922c1.133-2.77 5.423-27.057 5.423-27.057l5.346.205s1.405 28.592-.356 34.327c-1.757 5.735-25.924 31.468-25.924 31.468l-6.189-15.021M494.301 839.254c-.643-.969-1.115-2.048-1.455-3.168-.776-2.533-.896-5.26-.83-7.29.063-1.884.282-3.174.282-3.174l-14.01-5.866c.544 3.553.61 6.797.436 9.604-.415 6.675-2.185 10.876-2.185 10.876l.24.645c-1.563.3-3.221.645-4.979 1.045l18.123 9.73 10.477-11.07s-1.476-1.045-6.099-1.332" fill="#FFB27D"/>
                    <path d="M492.7 836.236c-7.162.458-13.2-7.085-13.2-7.085l12.425-.595c-.062 2.14.24 5.012.964 7.68" fill="#EA9C68"/>
                    <path d="M468.204 846.866s-16.782-18.9-24.66-24.538c0 0-12.147-24.735-13.1-26.348-.958-1.618-5.944 1.92-5.944 1.92s5.704 24.564 10.207 31.604c4.498 7.044 18.605 30.763 27.231 30.95 8.63.191 6.266-13.588 6.266-13.588M495.803 831.767s-14.712 5.273-20.889-6.386c-6.667-12.584-1.305-22.605 3.751-23.672 10.083-2.13 16.32 1.299 18.447 5.302 2.131 3.999 6.815 21.919-1.309 24.756" fill="#FFB27D"/>
                    <path d="M489.4 825.905s2.05 2.54 6.69 1.12c0 0 4.23-1.12 2.979-3.926 0 0-5.049-.613-9.669 2.806" fill="#FFF"/>
                    <path d="M479.785 829.656s-2.224-5.154-2.241-8.006c0 0-4.402-4.797-2.187-6.26 2.216-1.464 3.714 1.463 4.2.825.48-.641.485-10.794 3.331-10.71 2.842.083 13.531 2.474 17.776-1.888 4.24-4.365-8.116-18.997-26.41-11.42-18.294 7.583-13.72 28.89 4.54 37.974" fill="#FB973B"/>
                    <path d="M464.764 801.037s-1.227-3.1-.345-5.48c0 0 .292 3.136 1.528 4.436 1.24 1.294-1.183 1.044-1.183 1.044" fill="#FB973B"/>
                    <path d="M465.2 798.857s-2.352-.086-3.3 2.2c0 0 1.546-1.513 3.3-.248v-1.952" fill="#FB973B"/>
                    <path d="M514.175 914.463c-18.317 6.097-42.379 5.504-48.314 5.248-.887-.038-1.369-.068-1.369-.068-2.104-.277-3.65-1.824-3.802-3.67a3.817 3.817 0 0 1 .013-.728l3.244-28.09-8.647-39.407c7.705-4.314 14.823-6.87 21.422-8.278 2.75 2.14 8.081 5.184 13.67 4.057 4.199-.85 4.997-2.905 4.74-5.07 8.976.58 13.796 2.459 13.796 2.459l11.161 64.47c.676 3.872-1.795 7.703-5.914 9.077" fill="#F99746"/>
                    <path d="M446.5 851.535s11.534 6.471 12.81 12.221c0 0 15.983-12.545 17.99-23.617 0 0-3.44.016-7.622 1.601 0 0-2.155-.772-4.373-.651l-8.855-5.933s-9.51 3.278-9.95 16.379M493.629 838.216s4.362-.696 6.309-.396c0 0 .893-.794 3.109-1.09l10.919-8.174s8.342 7.06 7.232 17.89c0 0-9.092 6.48-9.078 7.896.01 1.41.26 9.414.26 9.414l-18.684-25.3-.067-.24z" fill="#F99746"/>
                    <path d="M525.167 795.374s-.085-1.995-1-3.617c-.914-1.621-.893-5.998.09-5.82.987.174.706 1.767 1.765 1.509 1.055-.262 2.285-5.432 3.727-5.072 1.442.36 2.62 1.985 2.548 5.69-.072 3.704-1.706 7.492-1.706 7.492l-5.424-.182M431.1 797.607s-.798-2.63-.523-5.099c.27-2.464-1.705-8.152-2.7-7.537-.993.61.023 2.577-1.242 2.648-1.269.076-4.914-6.178-6.322-5.148-1.409 1.034-1.967 3.61-.231 8.402 1.73 4.791 5.197 9.083 5.197 9.083l5.821-2.349" fill="#FFB27D"/>
                </g>
            </g>
        </g>
        <path d="M949.76 2.663a2 2 0 0 0 2.004 1.996l9.062-.013 5.943-.002a2 2 0 0 0 0-4l-8.948.005-6.065.01a2 2 0 0 0-1.996 2.004zm-44.97.214a2 2 0 0 0 2.013 1.986l9.045-.058 5.947-.034a2 2 0 0 0-.022-4l-8.949.053-6.049.04a2 2 0 0 0-1.986 2.013zm-43.024-1.612a2 2 0 0 0 .043 4l12.027-.124 2.97-.029a2 2 0 0 0-.038-4l-11.973.121-3.03.032zm-46.994 2.587a2 2 0 0 0 2.028 1.972l11.27-.153 3.718-.049a2 2 0 0 0-.052-4l-14.992.202a2 2 0 0 0-1.972 2.028zm-43.005-1.34a2 2 0 0 0 .066 4l14.993-.243a2 2 0 0 0-.063-4l-11.221.18-3.775.063zm-46.97 2.834a2 2 0 0 0 2.038 1.962l14.996-.276a2 2 0 1 0-.072-4l-15 .277a2 2 0 0 0-1.962 2.037zm-45.014.894a2 2 0 0 0 2.041 1.958l14.995-.306a2 2 0 0 0-.08-4L681.74 4.2a2 2 0 0 0-1.958 2.041zm-43.016-1.07a2 2 0 0 0 .09 3.998l14.99-.332a2 2 0 1 0-.087-3.999l-11.225.248-3.768.084zm-46.933 3.088a2 2 0 0 0 2.047 1.951l14.986-.354a2 2 0 1 0-.093-3.999l-14.988.354a2 2 0 0 0-1.952 2.048zm-43.076-.942a2 2 0 1 0 .1 3.999l15.004-.375a2 2 0 0 0-.099-3.999l-9.984.249-5.021.126zm-46.929 3.214a2 2 0 0 0 2.052 1.946l10.014-.263 4.98-.13a2 2 0 1 0-.104-3.999l-14.995.393a2 2 0 0 0-1.947 2.053zm-44.955 1.213a2 2 0 0 0 2.054 1.945l14.99-.41a2 2 0 1 0-.108-3.998l-14.992.41a2 2 0 0 0-1.944 2.053zm-44.995 1.262a2 2 0 0 0 2.056 1.942l14.994-.425a2 2 0 1 0-.113-3.998l-14.995.424a2 2 0 0 0-1.942 2.057zm-44.953 1.302a2 2 0 0 0 2.057 1.94l14.993-.438a2 2 0 1 0-.116-3.998l-14.994.438a2 2 0 0 0-1.94 2.058zm-45.027 1.343a2 2 0 0 0 2.06 1.939l14.99-.451a2 2 0 0 0-.12-3.998l-14.991.45a2 2 0 0 0-1.939 2.06zm-44.946 1.377a2 2 0 0 0 2.061 1.937l14.992-.462a2 2 0 1 0-.123-3.999l-14.993.463a2 2 0 0 0-1.937 2.061zm-45.006 1.412a2 2 0 0 0 2.062 1.936l14.992-.474a2 2 0 1 0-.125-3.998l-14.994.474a2 2 0 0 0-1.935 2.062zm-43.171.538a2 2 0 1 0 .553 3.962c4.89-.683 9.817-1.185 14.778-1.505a2 2 0 0 0-.258-3.992c-5.059.326-10.086.839-15.073 1.535zm-43.948 11.3a2 2 0 1 0 1.428 3.736c4.62-1.765 9.31-3.357 14.06-4.772a2 2 0 1 0-1.14-3.834 200.425 200.425 0 0 0-14.348 4.87zM102.534 51.16a2 2 0 0 0 2.23 3.321 197.767 197.767 0 0 1 12.629-7.805 2 2 0 1 0-1.974-3.48 201.764 201.764 0 0 0-12.885 7.964zM67.942 80.487a2 2 0 0 0 2.91 2.743 199.21 199.21 0 0 1 10.585-10.424 2 2 0 0 0-2.699-2.953 203.21 203.21 0 0 0-10.796 10.634zM40.7 116.797a2 2 0 0 0 3.448 2.026 198.446 198.446 0 0 1 7.999-12.509 2 2 0 0 0-3.288-2.28c-2.878 4.151-5.6 8.408-8.16 12.762zm-18.428 41.402a2 2 0 0 0 3.814 1.204 196.622 196.622 0 0 1 5-13.98 2 2 0 0 0-3.712-1.488 200.63 200.63 0 0 0-5.102 14.264zm-8.678 44.54a2 2 0 0 0 3.988.317c.394-4.949.972-9.868 1.733-14.749a2 2 0 0 0-3.952-.616 201.7 201.7 0 0 0-1.769 15.048zm2.82 47.152a2 2 0 0 0 1.882-2.112l-.873-14.974a2 2 0 0 0-3.993.233l.872 14.972a2 2 0 0 0 2.113 1.881zm.458 43.008a2 2 0 0 0 3.994-.225l-.849-14.964a2 2 0 0 0-3.994.228l.639 11.245.21 3.716zm4.603 46.85a2 2 0 0 0 1.888-2.106l-.823-14.99a2 2 0 0 0-3.994.22l.823 14.988a2 2 0 0 0 2.106 1.888zm2.399 44.93a2 2 0 0 0 1.893-2.1l-.79-14.983a2 2 0 1 0-3.995.212l.79 14.98a2 2 0 0 0 2.102 1.892zm.192 43.048a2 2 0 0 0 3.995-.198l-.751-14.98a2 2 0 1 0-3.995.202l.603 12.011.148 2.965zm2.156 44.946a2 2 0 0 0 3.996-.185l-.702-14.987a2 2 0 1 0-3.995.19l.564 12.021.137 2.96zm4.06 46.865a2 2 0 0 0 1.915-2.082l-.419-9.935-.218-5.059a2 2 0 1 0-3.996.173l.43 10.052.207 4.936a2 2 0 0 0 2.081 1.915zm1.723 44.944a2 2 0 0 0 1.929-2.07l-.305-8.481-.242-6.51a2 2 0 1 0-3.997.15l.397 10.773.15 4.21a2 2 0 0 0 2.068 1.928zm-.693 43.03a2 2 0 0 0 3.999-.1l-.193-7.38-.105-3.78-.11-3.842a2 2 0 1 0-3.998.117l.214 7.613.147 5.552.046 1.82zm.752 44.968a2 2 0 1 0 4-.023l-.009-1.43-.022-2.91-.043-4.48-.056-4.623-.022-1.573a2 2 0 0 0-4 .056l.06 4.66.048 4.52.035 4.375.009 1.428zm-.484 44.923a2 2 0 0 0 3.998.107c.136-5.063.244-10.068.326-15.014a2 2 0 1 0-4-.066c-.081 4.932-.19 9.923-.324 14.973zm-1.826 44.906a2 2 0 0 0 3.994.214c.272-5.05.52-10.047.743-14.994a2 2 0 0 0-3.996-.181c-.223 4.935-.47 9.922-.74 14.96zm-2.928 44.862a2 2 0 1 0 3.989.304c.384-5.038.746-10.03 1.088-14.977a2 2 0 1 0-3.99-.275c-.341 4.937-.704 9.92-1.087 14.948zm-3.85 44.797a2 2 0 0 0 3.982.38c.478-5.025.938-10.008 1.379-14.95a2 2 0 0 0-3.984-.355c-.44 4.934-.9 9.909-1.377 14.925zm-4.638 44.737a2 2 0 0 0 3.976.444c.56-5.01 1.102-9.985 1.628-14.921a2 2 0 1 0-3.978-.423c-.525 4.93-1.067 9.896-1.626 14.9zm-3.282 45.192a2 2 0 0 0 3.987-.32 98.129 98.129 0 0 1-.07-14.701 2 2 0 1 0-3.99-.28 102.128 102.128 0 0 0 .073 15.3zm13.741 43.426a2 2 0 1 0 3.447-2.03 98.12 98.12 0 0 1-6.489-13.192 2 2 0 1 0-3.712 1.49 102.12 102.12 0 0 0 6.754 13.732zm31.234 33.126a2 2 0 1 0 2.226-3.323 97.99 97.99 0 0 1-11.565-9.076 2 2 0 1 0-2.698 2.953 101.989 101.989 0 0 0 12.037 9.446zm42.66 16.22a2 2 0 0 0 .55-3.962 98.52 98.52 0 0 1-14.372-3.096 2 2 0 0 0-1.133 3.836 102.522 102.522 0 0 0 14.956 3.222zm47.18.073a2 2 0 0 0-1.935-2.062l-14.97-.473a2 2 0 1 0-.126 3.998l14.97.473a2 2 0 0 0 2.061-1.936zm45.004 1.408a2 2 0 0 0-1.936-2.061l-15.022-.468a2 2 0 1 0-.125 3.998l15.022.468a2 2 0 0 0 2.061-1.937zm44.929 1.384a2 2 0 0 0-1.938-2.06l-14.994-.46a2 2 0 1 0-.123 3.998l14.995.46a2 2 0 0 0 2.06-1.938zm44.959 1.362a2 2 0 0 0-1.94-2.06l-14.957-.45a2 2 0 1 0-.121 3.998l14.958.45a2 2 0 0 0 2.06-1.938zm44.992 1.338a2 2 0 0 0-1.94-2.058l-14.971-.443a2 2 0 0 0-.119 3.998l14.972.443a2 2 0 0 0 2.058-1.94zm45.025 1.313a2 2 0 0 0-1.942-2.057l-15.008-.435a2 2 0 1 0-.116 3.998l15.009.435a2 2 0 0 0 2.057-1.941zm44.989 1.283a2 2 0 0 0-1.943-2.055l-14.987-.425a2 2 0 1 0-.114 3.998l14.988.425a2 2 0 0 0 2.056-1.943zm44.988 1.254a2 2 0 0 0-1.944-2.054l-15.01-.416a2 2 0 0 0-.112 3.999l15.012.415a2 2 0 0 0 2.054-1.944zm44.975 1.22a2 2 0 0 0-1.945-2.052l-14.99-.404a2 2 0 1 0-.108 3.999l14.99.404a2 2 0 0 0 2.053-1.946zm44.956 1.186a2 2 0 0 0-1.947-2.05l-15-.393a2 2 0 1 0-.106 3.999l15.002.392a2 2 0 0 0 2.051-1.948zm45.011 1.15a2 2 0 0 0-1.949-2.05l-14.994-.379a2 2 0 1 0-.102 3.999l14.996.379a2 2 0 0 0 2.05-1.95zm45.002 1.108a2 2 0 0 0-1.951-2.048l-15.011-.366a2 2 0 0 0-.098 4l15.012.365a2 2 0 0 0 2.048-1.951zm44.95 1.061a2 2 0 0 0-1.953-2.045l-14.985-.35a2 2 0 1 0-.094 4l14.986.349a2 2 0 0 0 2.046-1.954zm44.966 1.013a2 2 0 0 0-1.955-2.043l-14.98-.333a2 2 0 1 0-.09 4l14.982.332a2 2 0 0 0 2.043-1.956zm45.03.96a2 2 0 0 0-1.957-2.041l-15.003-.314a2 2 0 0 0-.084 3.999l15.004.314a2 2 0 0 0 2.04-1.958zm45.004.898a2 2 0 0 0-1.96-2.038l-15.006-.293a2 2 0 0 0-.08 3.999l15.008.293a2 2 0 0 0 2.038-1.961zm44.968.829a2 2 0 0 0-1.964-2.035l-14.996-.27a2 2 0 0 0-.073 4l14.998.27a2 2 0 0 0 2.035-1.965zm45.01.752a2 2 0 0 0-1.968-2.032l-14.994-.242a2 2 0 1 0-.066 4l14.997.242a2 2 0 0 0 2.032-1.968zm45 .662a2 2 0 0 0-1.973-2.028l-15.002-.21a2 2 0 1 0-.057 3.999l15.004.211a2 2 0 0 0 2.027-1.972zm42.935 2.534a2 2 0 0 0 .045-4l-11.22-.129-3.777-.045a2 2 0 0 0-.048 4l11.277.132 3.723.042zm47.048-1.543a2 2 0 0 0-1.984-2.016l-11.972-.104-3.027-.028a2 2 0 0 0-.037 4l15.003.132a2 2 0 0 0 2.017-1.984zm44.992.284a2 2 0 0 0-1.99-2.01l-8.954-.044-6.045-.034a2 2 0 0 0-.024 4l9.048.05 5.956.029a2 2 0 0 0 2.01-1.991zm44.98.096a2 2 0 0 0-2-2l-9.213-.004-5.763-.007a2 2 0 0 0-.007 4l8.624.01 6.359.001a2 2 0 0 0 2-2zm43.043 1.878a2 2 0 0 0-.021-4c-5.006.027-10.008.05-15.006.067a2 2 0 0 0 .014 4c5.001-.018 10.005-.04 15.013-.067zm44.99-.356a2 2 0 0 0-.042-4c-5.004.053-10.004.101-15.001.145a2 2 0 0 0 .035 4c5-.044 10.002-.092 15.008-.145zm44.992-.587a2 2 0 0 0-.063-4c-5 .078-9.999.152-14.994.222a2 2 0 0 0 .056 4c4.997-.07 9.997-.144 15-.222zm45.035-.817a2 2 0 0 0-.082-4c-5.003.104-10.003.203-15 .298a2 2 0 1 0 .076 4c5-.096 10.001-.195 15.006-.298zm44.974-1.042a2 2 0 0 0-.102-4c-5.003.13-10.003.253-15 .373a2 2 0 1 0 .096 4c5-.12 10.001-.245 15.006-.373zm44.994-1.267a2 2 0 1 0-.122-3.998c-5 .153-9.998.302-14.992.447a2 2 0 0 0 .116 3.998c4.996-.145 9.996-.293 14.998-.447zm44.997-1.487a2 2 0 0 0-.142-3.997c-5 .177-9.997.35-14.99.52a2 2 0 1 0 .135 3.997c4.996-.169 9.995-.342 14.997-.52zm44.956-1.704a2 2 0 1 0-.161-3.997c-4.998.202-9.992.399-14.983.592a2 2 0 1 0 .154 3.997c4.994-.193 9.99-.39 14.99-.592zm44.987-1.921a2 2 0 0 0-.18-3.996c-4.998.225-9.993.446-14.985.663a2 2 0 1 0 .174 3.997 9488.5 9488.5 0 0 0 14.99-.664zm44.94-2.133a2 2 0 0 0-.2-3.995c-4.995.249-9.987.493-14.977.734a2 2 0 0 0 .193 3.995c4.991-.24 9.986-.485 14.984-.734zm45.07-2.966a2 2 0 1 0-.523-3.966c-4.89.645-9.82 1.111-14.783 1.395a2 2 0 1 0 .23 3.994c5.06-.29 10.088-.765 15.076-1.423zm44.024-10.953a2 2 0 0 0-1.398-3.748 196.483 196.483 0 0 1-14.092 4.658 2 2 0 1 0 1.111 3.843 200.483 200.483 0 0 0 14.379-4.753zm40.458-20.567a2 2 0 1 0-2.203-3.339 197.508 197.508 0 0 1-12.692 7.707 2 2 0 1 0 1.946 3.495 201.508 201.508 0 0 0 12.95-7.863zm34.821-29.069a2 2 0 1 0-2.89-2.765 199.133 199.133 0 0 1-10.66 10.343 2 2 0 1 0 2.677 2.972c3.754-3.38 7.381-6.9 10.873-10.55zm27.526-36.12a2 2 0 1 0-3.433-2.053 198.66 198.66 0 0 1-8.094 12.451 2 2 0 1 0 3.27 2.304 202.66 202.66 0 0 0 8.257-12.702zm18.76-41.305a2 2 0 0 0-3.806-1.233 196.794 196.794 0 0 1-5.105 13.943 2 2 0 1 0 3.701 1.516 200.794 200.794 0 0 0 5.21-14.226zm9.005-44.407a2 2 0 0 0-3.984-.348 197.233 197.233 0 0 1-1.848 14.734 2 2 0 1 0 3.948.647 201.233 201.233 0 0 0 1.884-15.033zm-3.149-47.118a2 2 0 0 0-1.796 2.185l.758 7.73a198 198 0 0 1 .571 7.132 2 2 0 0 0 3.992-.247 202 202 0 0 0-.583-7.276l-.757-7.728a2 2 0 0 0-2.185-1.796zm-4.268-44.827a2 2 0 0 0-1.806 2.177l1.048 11.185.355 3.765a2 2 0 0 0 3.983-.377l-.708-7.508-.696-7.436a2 2 0 0 0-2.176-1.806zm-4.044-44.812a2 2 0 0 0-1.818 2.167l.789 8.934.537 6.022a2 2 0 1 0 3.984-.357l-.537-6.02-.788-8.928a2 2 0 0 0-2.167-1.818zm-3.774-44.828a2 2 0 0 0-1.832 2.155l.484 5.936.746 9.019a2 2 0 0 0 3.986-.332l-.745-9.014-.484-5.932a2 2 0 0 0-2.155-1.832zm-1.297-43.006a2 2 0 0 0-3.99.29l.434 5.931.447 6.004.229 3.03a2 2 0 0 0 3.988-.303l-.453-6.035-.44-5.963-.215-2.954zm-5.14-46.763a2 2 0 0 0-1.874 2.119l.307 4.931.317 4.993.328 5.054a2 2 0 0 0 3.991-.261l-.165-2.532-.322-5.018-.463-7.412a2 2 0 0 0-2.119-1.874zm-2.394-44.934a2 2 0 0 0-1.907 2.088l.196 4.213.206 4.27.215 4.327.112 2.186a2 2 0 0 0 3.995-.206l-.327-6.503-.206-4.263-.195-4.205a2 2 0 0 0-2.089-1.907zm-1.481-44.977a2 2 0 0 0-1.959 2.04l.08 3.661.09 3.723.101 3.784c.036 1.272.073 2.554.112 3.847a2 2 0 1 0 3.998-.122l-.112-3.836-.1-3.775-.09-3.712-.08-3.651a2 2 0 0 0-2.04-1.96zm2.024-42.943a2 2 0 0 0-4-.083c-.106 5.12-.176 10.127-.21 15.022a2 2 0 0 0 4 .028c.033-4.877.104-9.865.21-14.967zm1.715-44.91a2 2 0 0 0-3.995-.215c-.273 5.089-.517 10.089-.733 15.001a2 2 0 0 0 3.996.176c.216-4.9.46-9.887.732-14.963zm2.967-44.845a2 2 0 0 0-3.988-.31c-.393 5.063-.762 10.054-1.108 14.972a2 2 0 1 0 3.99.28c.345-4.908.714-9.889 1.106-14.942zm3.908-44.804a2 2 0 1 0-3.982-.383 2657.72 2657.72 0 0 0-1.395 14.95 2 2 0 1 0 3.984.361l.543-5.927.562-5.986.288-3.015zm4.643-44.729a2 2 0 1 0-3.975-.441l-.333 3.01-.653 5.982-.637 5.931a2 2 0 0 0 3.978.423l.316-2.955.644-5.95c.217-1.991.437-3.991.66-6zm5.24-44.669a2 2 0 0 0-3.97-.49l-.915 7.484a3900.22 3900.22 0 0 0-.893 7.413 2 2 0 0 0 3.972.474c.587-4.913 1.189-9.873 1.806-14.88zm5.734-44.604a2 2 0 0 0-3.964-.53l-.992 7.471-.972 7.408a2 2 0 0 0 3.966.517l.971-7.401c.327-2.478.658-4.966.991-7.465zm5.502-44.873a2 2 0 0 0-4-.098 99.062 99.062 0 0 1-.933 11.357l-.468 3.341a2 2 0 1 0 3.962.554l.467-3.34c.553-3.938.876-7.88.972-11.814zm-9.135-44.618a2 2 0 1 0-3.639 1.66 97.752 97.752 0 0 1 5.08 13.795 2 2 0 0 0 3.848-1.096 101.752 101.752 0 0 0-5.289-14.36zm-27.641-36.194a2 2 0 1 0-2.56 3.074 98.326 98.326 0 0 1 10.563 10.227 2 2 0 1 0 2.99-2.658 102.326 102.326 0 0 0-10.993-10.643zm-40.71-20.57a2 2 0 1 0-.955 3.885 97.643 97.643 0 0 1 13.968 4.575 2 2 0 1 0 1.528-3.697 101.643 101.643 0 0 0-14.54-4.762zm-47.233-1.927a2 2 0 0 0 1.922 2.075l14.975.576a2 2 0 0 0 .155-3.997l-14.977-.576a2 2 0 0 0-2.075 1.922zm-44.97-1.696a2 2 0 0 0 1.925 2.073l14.986.561a2 2 0 1 0 .15-3.997l-14.987-.56a2 2 0 0 0-2.073 1.923zm-44.949-1.647a2 2 0 0 0 1.926 2.071l15.008.545a2 2 0 0 0 .146-3.997l-15.01-.545a2 2 0 0 0-2.07 1.926zm-44.994-1.597a2 2 0 0 0 1.929 2.068l15.005.528a2 2 0 1 0 .141-3.998l-15.007-.527a2 2 0 0 0-2.068 1.929zm-44.97-1.541a2 2 0 0 0 1.93 2.066l14.992.508a2 2 0 0 0 .137-3.997l-14.994-.509a2 2 0 0 0-2.066 1.932zm-44.953-1.48a2 2 0 0 0 1.934 2.063l15.004.488a2 2 0 1 0 .13-3.998l-15.005-.488a2 2 0 0 0-2.063 1.935zm-42.923-3.354a2 2 0 0 0-.123 3.998l9.967.309 5.008.156a2 2 0 0 0 .126-3.998l-10.002-.311-4.976-.154zm-47.062.593a2 2 0 0 0 1.94 2.057l15.006.441a2 2 0 0 0 .118-3.998l-15.007-.441a2 2 0 0 0-2.057 1.94zm-42.886-3.21a2 2 0 0 0-.109 3.998l14.98.414A2 2 0 1 0 1345.9 7l-10.008-.277-4.976-.137zm-47.066.763a2 2 0 0 0 1.95 2.05l14.982.384a2 2 0 0 0 .104-3.999l-14.986-.384a2 2 0 0 0-2.05 1.949zm-45-1.086a2 2 0 0 0 1.953 2.046l14.993.352a2 2 0 1 0 .095-3.999l-14.995-.352a2 2 0 0 0-2.046 1.953zm-44.97-.977a2 2 0 0 0 1.959 2.04l14.989.316a2 2 0 1 0 .085-4l-14.992-.314a2 2 0 0 0-2.04 1.958zm-45.01-.857a2 2 0 0 0 1.965 2.035l14.993.273a2 2 0 1 0 .074-4l-14.996-.272a2 2 0 0 0-2.036 1.964zm-42.936-2.689a2 2 0 0 0-.057 4l11.227.167 3.773.058a2 2 0 1 0 .063-4l-11.278-.17-3.728-.055zm-45.011-.565a2 2 0 0 0-.043 4l11.221.124 3.775.045a2 2 0 0 0 .048-4l-11.277-.13-3.724-.04zm-47.02 1.61a2 2 0 0 0 1.988 2.011l7.46.049 7.537.054a2 2 0 0 0 .03-4l-7.54-.054-7.462-.049a2 2 0 0 0-2.013 1.988zm-44.999-.143a2 2 0 0 0 1.999 2l8.954.011 6.042.013a2 2 0 0 0 .01-4l-9.045-.017-5.959-.006a2 2 0 0 0-2.001 1.999z" fill="#807FB5" fill-rule="nonzero"/>
    </g>
</svg>
